<?xml version="1.0" encoding="UTF-8" standalone="no"?>
<!DOCTYPE svg PUBLIC "-//W3C//DTD SVG 1.1//EN"
 "http://www.w3.org/Graphics/SVG/1.1/DTD/svg11.dtd">
<!-- Generated by graphviz version 14.1.2 (0)
 -->
<!-- Pages: 1 -->
<svg width="1276pt" height="156pt"
 viewBox="0.00 0.00 1276.00 156.00" xmlns="http://www.w3.org/2000/svg" xmlns:xlink="http://www.w3.org/1999/xlink">
<g id="graph0" class="graph" transform="scale(1 1) rotate(0) translate(4 152)">
<polygon fill="white" stroke="none" points="-4,4 -4,-152 1272.25,-152 1272.25,4 -4,4"/>
<!-- 139945995212816 -->
<g id="node1" class="node">
<title>139945995212816</title>
<polygon fill="none" stroke="black" points="5.25,-111.5 5.25,-147.5 219.75,-147.5 219.75,-111.5 5.25,-111.5"/>
<text xml:space="preserve" text-anchor="middle" x="17" y="-125.2" font-family="Times,serif" font-size="14.00">c</text>
<polyline fill="none" stroke="black" points="28.75,-112.25 28.75,-147.5"/>
<text xml:space="preserve" text-anchor="middle" x="72.75" y="-125.2" font-family="Times,serif" font-size="14.00">data: 10.0</text>
<polyline fill="none" stroke="black" points="116.75,-112.25 116.75,-147.5"/>
<text xml:space="preserve" text-anchor="middle" x="168.25" y="-125.2" font-family="Times,serif" font-size="14.00">grad 6.0000</text>
</g>
<!-- 139946822076880* -->
<g id="node10" class="node">
<title>139946822076880*</title>
<ellipse fill="none" stroke="black" cx="288" cy="-101.5" rx="27" ry="18"/>
<text xml:space="preserve" text-anchor="middle" x="288" y="-96.83" font-family="Times,serif" font-size="14.00">*</text>
</g>
<!-- 139945995212816&#45;&gt;139946822076880* -->
<g id="edge5" class="edge">
<title>139945995212816&#45;&gt;139946822076880*</title>
<path fill="none" stroke="black" d="M219.92,-112.33C230.65,-110.59 240.96,-108.93 250.13,-107.45"/>
<polygon fill="black" stroke="black" points="250.68,-110.91 260,-105.86 249.57,-104 250.68,-110.91"/>
</g>
<!-- 139946821366880 -->
<g id="node2" class="node">
<title>139946821366880</title>
<polygon fill="none" stroke="black" points="1052.25,-27.5 1052.25,-63.5 1268.25,-63.5 1268.25,-27.5 1052.25,-27.5"/>
<text xml:space="preserve" text-anchor="middle" x="1064.75" y="-41.2" font-family="Times,serif" font-size="14.00">L</text>
<polyline fill="none" stroke="black" points="1077.25,-28.25 1077.25,-63.5"/>
<text xml:space="preserve" text-anchor="middle" x="1121.25" y="-41.2" font-family="Times,serif" font-size="14.00">data: 56.0</text>
<polyline fill="none" stroke="black" points="1165.25,-28.25 1165.25,-63.5"/>
<text xml:space="preserve" text-anchor="middle" x="1216.75" y="-41.2" font-family="Times,serif" font-size="14.00">grad 1.0000</text>
</g>
<!-- 139946821366880* -->
<g id="node3" class="node">
<title>139946821366880*</title>
<ellipse fill="none" stroke="black" cx="989.25" cy="-45.5" rx="27" ry="18"/>
<text xml:space="preserve" text-anchor="middle" x="989.25" y="-40.83" font-family="Times,serif" font-size="14.00">*</text>
</g>
<!-- 139946821366880*&#45;&gt;139946821366880 -->
<g id="edge1" class="edge">
<title>139946821366880*&#45;&gt;139946821366880</title>
<path fill="none" stroke="black" d="M1016.66,-45.5C1023.77,-45.5 1031.95,-45.5 1040.72,-45.5"/>
<polygon fill="black" stroke="black" points="1040.59,-49 1050.59,-45.5 1040.59,-42 1040.59,-49"/>
</g>
<!-- 139945996405936 -->
<g id="node4" class="node">
<title>139945996405936</title>
<polygon fill="none" stroke="black" points="701.25,-0.5 701.25,-36.5 926.25,-36.5 926.25,-0.5 701.25,-0.5"/>
<text xml:space="preserve" text-anchor="middle" x="713.75" y="-14.2" font-family="Times,serif" font-size="14.00">g</text>
<polyline fill="none" stroke="black" points="726.25,-1.25 726.25,-36.5"/>
<text xml:space="preserve" text-anchor="middle" x="768" y="-14.2" font-family="Times,serif" font-size="14.00">data: &#45;2.0</text>
<polyline fill="none" stroke="black" points="809.75,-1.25 809.75,-36.5"/>
<text xml:space="preserve" text-anchor="middle" x="868" y="-14.2" font-family="Times,serif" font-size="14.00">grad &#45;28.0000</text>
</g>
<!-- 139945996405936&#45;&gt;139946821366880* -->
<g id="edge8" class="edge">
<title>139945996405936&#45;&gt;139946821366880*</title>
<path fill="none" stroke="black" d="M926.59,-35.9C935.37,-37.27 943.77,-38.58 951.4,-39.76"/>
<polygon fill="black" stroke="black" points="950.76,-43.21 961.18,-41.29 951.84,-36.29 950.76,-43.21"/>
</g>
<!-- 139945995215056 -->
<g id="node5" class="node">
<title>139945995215056</title>
<polygon fill="none" stroke="black" points="0,-56.5 0,-92.5 225,-92.5 225,-56.5 0,-56.5"/>
<text xml:space="preserve" text-anchor="middle" x="12.5" y="-70.2" font-family="Times,serif" font-size="14.00">b</text>
<polyline fill="none" stroke="black" points="25,-57.25 25,-92.5"/>
<text xml:space="preserve" text-anchor="middle" x="66.75" y="-70.2" font-family="Times,serif" font-size="14.00">data: &#45;3.0</text>
<polyline fill="none" stroke="black" points="108.5,-57.25 108.5,-92.5"/>
<text xml:space="preserve" text-anchor="middle" x="166.75" y="-70.2" font-family="Times,serif" font-size="14.00">grad &#45;20.0000</text>
</g>
<!-- 139945995215056&#45;&gt;139946822076880* -->
<g id="edge4" class="edge">
<title>139945995215056&#45;&gt;139946822076880*</title>
<path fill="none" stroke="black" d="M225.34,-91.9C234.12,-93.27 242.52,-94.58 250.15,-95.76"/>
<polygon fill="black" stroke="black" points="249.51,-99.21 259.93,-97.29 250.59,-92.29 249.51,-99.21"/>
</g>
<!-- 139945997641600 -->
<g id="node6" class="node">
<title>139945997641600</title>
<polygon fill="none" stroke="black" points="701.25,-55.5 701.25,-91.5 926.25,-91.5 926.25,-55.5 701.25,-55.5"/>
<text xml:space="preserve" text-anchor="middle" x="713.75" y="-69.2" font-family="Times,serif" font-size="14.00">d</text>
<polyline fill="none" stroke="black" points="726.25,-56.25 726.25,-91.5"/>
<text xml:space="preserve" text-anchor="middle" x="772.5" y="-69.2" font-family="Times,serif" font-size="14.00">data: &#45;28.0</text>
<polyline fill="none" stroke="black" points="818.75,-56.25 818.75,-91.5"/>
<text xml:space="preserve" text-anchor="middle" x="872.5" y="-69.2" font-family="Times,serif" font-size="14.00">grad &#45;2.0000</text>
</g>
<!-- 139945997641600&#45;&gt;139946821366880* -->
<g id="edge6" class="edge">
<title>139945997641600&#45;&gt;139946821366880*</title>
<path fill="none" stroke="black" d="M926.59,-55.45C935.37,-54.03 943.77,-52.68 951.4,-51.45"/>
<polygon fill="black" stroke="black" points="951.87,-54.92 961.18,-49.87 950.75,-48.01 951.87,-54.92"/>
</g>
<!-- 139945997641600+ -->
<g id="node7" class="node">
<title>139945997641600+</title>
<ellipse fill="none" stroke="black" cx="638.25" cy="-73.5" rx="27" ry="18"/>
<text xml:space="preserve" text-anchor="middle" x="638.25" y="-68.83" font-family="Times,serif" font-size="14.00">+</text>
</g>
<!-- 139945997641600+&#45;&gt;139945997641600 -->
<g id="edge2" class="edge">
<title>139945997641600+&#45;&gt;139945997641600</title>
<path fill="none" stroke="black" d="M665.6,-73.5C672.67,-73.5 680.79,-73.5 689.52,-73.5"/>
<polygon fill="black" stroke="black" points="689.35,-77 699.35,-73.5 689.35,-70 689.35,-77"/>
</g>
<!-- 139945995497360 -->
<g id="node8" class="node">
<title>139945995497360</title>
<polygon fill="none" stroke="black" points="357.75,-28.5 357.75,-64.5 568.5,-64.5 568.5,-28.5 357.75,-28.5"/>
<text xml:space="preserve" text-anchor="middle" x="369.88" y="-42.2" font-family="Times,serif" font-size="14.00">a</text>
<polyline fill="none" stroke="black" points="382,-29.25 382,-64.5"/>
<text xml:space="preserve" text-anchor="middle" x="421.5" y="-42.2" font-family="Times,serif" font-size="14.00">data: 2.0</text>
<polyline fill="none" stroke="black" points="461,-29.25 461,-64.5"/>
<text xml:space="preserve" text-anchor="middle" x="514.75" y="-42.2" font-family="Times,serif" font-size="14.00">grad &#45;2.0000</text>
</g>
<!-- 139945995497360&#45;&gt;139945997641600+ -->
<g id="edge7" class="edge">
<title>139945995497360&#45;&gt;139945997641600+</title>
<path fill="none" stroke="black" d="M568.83,-62.83C579.94,-64.56 590.64,-66.23 600.14,-67.71"/>
<polygon fill="black" stroke="black" points="599.56,-71.16 609.98,-69.25 600.64,-64.25 599.56,-71.16"/>
</g>
<!-- 139946822076880 -->
<g id="node9" class="node">
<title>139946822076880</title>
<polygon fill="none" stroke="black" points="351,-83.5 351,-119.5 575.25,-119.5 575.25,-83.5 351,-83.5"/>
<text xml:space="preserve" text-anchor="middle" x="363.12" y="-97.2" font-family="Times,serif" font-size="14.00">e</text>
<polyline fill="none" stroke="black" points="375.25,-84.25 375.25,-119.5"/>
<text xml:space="preserve" text-anchor="middle" x="421.5" y="-97.2" font-family="Times,serif" font-size="14.00">data: &#45;30.0</text>
<polyline fill="none" stroke="black" points="467.75,-84.25 467.75,-119.5"/>
<text xml:space="preserve" text-anchor="middle" x="521.5" y="-97.2" font-family="Times,serif" font-size="14.00">grad &#45;2.0000</text>
</g>
<!-- 139946822076880&#45;&gt;139945997641600+ -->
<g id="edge9" class="edge">
<title>139946822076880&#45;&gt;139945997641600+</title>
<path fill="none" stroke="black" d="M575.73,-83.45C584.48,-82.03 592.87,-80.68 600.48,-79.45"/>
<polygon fill="black" stroke="black" points="600.93,-82.92 610.24,-77.87 599.81,-76.01 600.93,-82.92"/>
</g>
<!-- 139946822076880*&#45;&gt;139946822076880 -->
<g id="edge3" class="edge">
<title>139946822076880*&#45;&gt;139946822076880</title>
<path fill="none" stroke="black" d="M315.29,-101.5C322.41,-101.5 330.61,-101.5 339.41,-101.5"/>
<polygon fill="black" stroke="black" points="339.34,-105 349.34,-101.5 339.34,-98 339.34,-105"/>
</g>
</g>
</svg>
